The Mechanic *2011*[BluRay][1080p][ENG, POL]

General information:
Country: USA
Release: 13 January 2011	
Genre: Action, Crime, Thriller 
Director: Simon West
Screenplay: Richard Wenk, Lewis John Carlino
Original Music: Mark Isham
Cinematography by: Eric Schmidt
Duration: 1h 32mn
Language: English, Polish
Subtitles: English, Polish
Rating:  -  6.8/10
8046 votes

Cast:
Jason Statham ...Arthur Bishop
Ben Foster ...	Steve McKenna
Tony Goldwyn ...Dean
Donald Sutherland ...Harry McKenna
Jeff Chase ...Burke
Mini Anden ...Sarah
James Logan ...Jorge Lara
Eddie J. Fernandez ...Lara's Guard (as Eddie Fernandez)
Joshua Bridgewater ...Car Jacker
John McConnell ...Vaughn
Christa Campbell ...Kelly
Joel Davis ...Husband
Mark Nutter ...Mr. Finch (as Mark Anthony Nutter)
Ardy Brent Carlson ...Bell Hop
Lara Grice ...Mrs. Finch

Plot:
Follows an elite hit man as he teaches his trade to an apprentice who has a connection to one of his previous victims.

Specifications:
General
Format                           : Matroska
Format version                   : Version 2
Overall bit rate                 : 18.9 Mbps

Video
Format                           : AVC
Format/Info                      : Advanced Video Codec
Format profile                   : High@L4.1
Format settings, CABAC           : Yes
Format settings, ReFrames        : 5 frames
Muxing mode                      : Header stripping
Codec ID                         : V_MPEG4/ISO/AVC
Duration                         : 1h 32mn
Bit rate mode                    : Variable
Bit rate                         : 17.0 Mbps
Maximum bit rate                 : 40.0 Mbps
Width                            : 1 920 pixels
Height                           : 800 pixels
Display aspect ratio             : 2.40:1
Frame rate                       : 23.976 fps

Audio 1
Format                           : DTS
Format/Info                      : Digital Theater Systems
Muxing mode                      : Header stripping
Codec ID                         : A_DTS
Bit rate mode                    : Constant
Bit rate                         : 1 510 Kbps
Channel(s)                       : 6 channels
Channel positions                : Front: L C R, Side: L R, LFE
Sampling rate                    : 48.0 KHz
Bit depth                        : 24 bits
Compression mode                 : Lossy
Stream size                      : 1 001 MiB (8%)
Title                            : English
Language                         : English

Audio 2
Format                           : AC-3
Format/Info                      : Audio Coding 3
Mode extension                   : CM (complete main)
Muxing mode                      : Header stripping
Codec ID                         : A_AC3
Bit rate mode                    : Constant
Bit rate                         : 448 Kbps
Channel(s)                       : 6 channels
Channel positions                : Front: L C R, Side: L R, LFE
Sampling rate                    : 48.0 KHz
Bit depth                        : 16 bits
Compression mode                 : Lossy
Stream size                      : 297 MiB (2%)
Title                            : Polish
Language                         : Polish

Text 1
Format                           : UTF-8
Codec ID                         : S_TEXT/UTF8
Codec ID/Info                    : UTF-8 Plain Text
Title                            : English
Language                         : English

Text 2
Format                           : UTF-8
Codec ID                         : S_TEXT/UTF8
Codec ID/Info                    : UTF-8 Plain Text
Title                            : Polish
Language                         : Polish
